<svg width="512" height="75" xmlns="http://www.w3.org/2000/svg" xml:space="preserve" version="1.1">

 <g>
  <title>Layer 1</title>
  <rect stroke="null" x="0" y="0" id="svg_1" fill="#474747" height="75" width="512" class="st0"/>
  <g stroke="null" id="svg_2">
   <path stroke="null" id="svg_3" fill="#FFFFFF" d="m113.32,35.19l0,6.44c0,11.07 -0.64,15.07 -2.81,19.06c-1.82,3.27 -4.81,5.26 -9.53,6.44c-3.27,0.82 -8.44,1 -26.68,1c-16.06,0 -23.87,-0.54 -27.59,-2c-5.81,-2.18 -8.8,-5.72 -10.07,-12.16c-0.73,-3.45 -1,-7.44 -1,-16.06c0,-15.97 1,-21.06 4.9,-25.32c2.54,-2.72 6.08,-4.36 10.89,-4.99c5.63,-0.82 12.07,-1.09 29.86,-1.09c17.7,0 24.05,1.27 27.86,5.63c2.63,2.9 3.9,7.62 3.9,14.34l-13.7,0c-0.09,-3.81 -0.54,-5.26 -2.27,-6.63c-2.36,-1.91 -5.45,-2.27 -17.24,-2.27c-21.87,0 -25.23,0.36 -27.59,3.18c-1.91,2.18 -2.54,6.17 -2.54,15.61c0,11.8 0.73,15.88 3.27,18.06c2.63,2.36 6.08,2.81 22.51,2.81c17.97,0 19.88,-0.36 22.6,-4.27c1.18,-1.54 1.63,-4.45 1.63,-8.62l-26.97,0l0,-9.17l40.57,0l0,0.01z" class="st1"/>
   <path stroke="null" id="svg_4" fill="#FFFFFF" d="m127.93,7.06l13.98,0l0,49.19l44.2,0l0,11.34l-58.18,0l0,-60.53z" class="st1"/>
   <path stroke="null" id="svg_5" fill="#FFFFFF" d="m272.15,12.41c2.54,2.81 3.9,6.72 4.45,12.8c0.27,2.81 0.36,6.08 0.36,12.8c0,15.16 -1.45,20.97 -6.08,25.05c-3.36,2.9 -7.9,4.36 -15.52,4.81c-2.9,0.18 -13.89,0.36 -22.33,0.36c-18.51,0 -23.51,-0.54 -28.68,-3.36c-3.99,-2.18 -6.63,-6.35 -7.44,-12.34c-0.54,-3.99 -0.73,-7.26 -0.73,-17.15c0,-14.16 1.36,-19.79 5.72,-23.6c3.27,-2.9 7.53,-4.27 15.34,-4.9c3.09,-0.27 12.16,-0.45 23.23,-0.45c21.43,-0.01 27.15,1.08 31.68,5.98zm-61.71,24.96c0,11.8 0.91,15.61 4.27,17.33c3.36,1.82 6.26,2.09 23.6,2.09c15.61,0 19.51,-0.63 21.96,-3.36c2.09,-2.27 2.72,-6.17 2.72,-16.43c0,-18.97 -0.18,-19.15 -26.32,-19.15c-25.87,0.01 -26.23,0.28 -26.23,19.52z" class="st1"/>
   <path stroke="null" id="svg_6" fill="#FFFFFF" d="m291.67,7.06l52.19,0c15.16,0 20.42,4.18 20.42,16.16c0,7.81 -2.36,11.53 -8.08,12.8c7.35,1 10.35,5.08 10.35,14.16c0,12.52 -5.63,17.43 -20.06,17.43l-54.82,0l0,-60.55zm46.74,24.86c5.63,0 7.71,-0.27 9.26,-1.09c1.72,-1 2.63,-3 2.63,-5.81c0,-3.09 -1,-5.26 -2.9,-6.26c-1.36,-0.82 -3.54,-1.18 -7.62,-1.18l-34.4,0l0,14.34l33.03,0zm3,25.14c8.44,0 10.98,-1.81 10.98,-7.9c0,-3.18 -1,-5.54 -2.81,-6.63c-1.45,-0.82 -4.08,-1.18 -9.08,-1.18l-35.12,0l0,15.7l36.03,0l0,0.01z" class="st1"/>
   <path stroke="null" id="svg_7" fill="#FFFFFF" d="m380.98,7.06l13.98,0l0,60.54l-13.98,0l0,-60.54z" class="st1"/>
   <path stroke="null" id="svg_8" fill="#FFFFFF" d="m407.67,56.88l51.37,-39.21l-49.65,0l0,-10.62l69.52,0l0,10.71l-51.73,39.21l52.55,0l0,10.62l-72.06,0l0,-10.71z" class="st1"/>
  </g>
 </g>
</svg>